<?xml version="1.0" standalone="no"?>
<!DOCTYPE svg PUBLIC "-//W3C//DTD SVG 20010904//EN"
 "http://www.w3.org/TR/2001/REC-SVG-20010904/DTD/svg10.dtd">
<svg version="1.0" xmlns="http://www.w3.org/2000/svg"
 width="257.000000pt" height="103.000000pt" viewBox="0 0 257.000000 103.000000"
 preserveAspectRatio="xMidYMid meet">

<g transform="translate(0.000000,103.000000) scale(0.100000,-0.100000)"
fill="#000000" stroke="none">
<path d="M1507 1007 c-20 -18 -88 -96 -166 -190 -12 -15 -13 -22 -3 -37 10
-17 8 -22 -13 -36 -25 -16 -26 -16 -99 50 -75 67 -102 79 -112 51 -6 -14 -8
-13 -19 2 -12 16 -21 15 -136 -22 -68 -21 -130 -43 -136 -48 -19 -14 -17 -141
2 -157 8 -6 19 -9 25 -5 5 3 10 0 10 -7 0 -9 -17 -13 -57 -13 -32 0 -70 -4
-85 -9 -27 -8 -28 -7 -28 25 -1 74 -93 173 -186 199 -63 18 -215 8 -294 -19
-92 -31 -200 -97 -200 -121 0 -10 28 -65 61 -121 57 -94 63 -101 88 -96 26 6
29 1 126 -219 82 -187 102 -224 119 -224 40 0 187 51 193 67 6 14 -2 64 -23
153 -5 23 -4 22 22 -9 56 -68 150 -88 246 -51 29 11 54 20 55 20 1 0 3 -10 5
-22 3 -22 7 -23 78 -21 41 2 89 7 105 11 29 8 30 10 33 80 l3 72 169 -85 c94
-47 177 -85 185 -85 10 0 15 10 15 28 l0 29 122 7 c66 4 125 9 131 13 5 3 32
55 61 116 l52 110 64 -151 c35 -83 69 -153 75 -156 20 -7 200 16 212 27 9 9 8
22 -7 56 -11 24 -20 47 -20 51 0 5 18 19 40 31 46 26 48 38 29 148 -12 64 -11
65 15 88 51 44 54 35 35 -99 -14 -96 -15 -126 -6 -134 7 -7 56 -15 109 -19 96
-7 97 -7 102 17 6 30 56 515 56 546 0 14 -13 37 -31 53 -43 40 -108 41 -148 1
-15 -15 -30 -33 -32 -40 -3 -10 -13 -9 -44 5 -52 23 -205 22 -293 -1 -34 -9
-67 -14 -71 -11 -5 3 -17 28 -27 56 -24 65 -41 80 -61 54 -8 -11 -44 -80 -80
-152 -36 -73 -68 -133 -70 -133 -2 0 -15 13 -29 29 -13 16 -47 41 -75 55 l-51
25 51 26 c28 14 51 32 51 41 0 19 -91 161 -107 168 -7 3 -23 -5 -36 -17z m45
-94 c32 -29 22 -47 -47 -81 -102 -50 -109 -43 -38 42 26 31 52 56 57 56 5 0
18 -7 28 -17z m940 -50 c37 -34 15 -93 -35 -93 -39 0 -57 15 -57 48 0 57 51
83 92 45z m-536 -203 c146 -351 186 -451 183 -455 -2 -1 -29 -5 -59 -6 l-54
-4 -66 149 c-58 134 -68 150 -94 157 -16 5 -34 5 -39 2 -5 -3 -33 -56 -62
-118 -29 -62 -60 -115 -70 -119 -17 -6 -125 -9 -125 -2 0 26 54 113 98 158 54
55 55 58 42 83 -13 25 -9 36 69 192 46 94 86 162 91 157 5 -5 43 -92 86 -194z
m316 160 c42 -12 78 -51 78 -85 0 -32 -53 -99 -116 -148 l-55 -42 5 -45 c4
-25 9 -68 12 -96 l7 -52 -33 -7 c-17 -4 -36 -3 -41 2 -5 5 -23 65 -40 134 -49
202 -48 200 -67 197 -12 -2 -20 12 -33 59 l-17 63 36 9 c85 22 205 27 264 11z
m-1241 -102 c1 -98 9 -100 65 -20 27 39 53 72 59 72 12 0 105 -91 105 -103 0
-5 -34 -44 -75 -87 l-76 -77 63 -24 c42 -16 78 -38 109 -69 30 -30 62 -50 95
-61 46 -14 49 -17 52 -53 2 -21 1 -44 -1 -51 -4 -8 -62 16 -184 76 -98 49
-179 89 -180 89 -2 0 -3 -42 -3 -94 l0 -93 -31 -7 c-63 -12 -69 -10 -69 35 0
22 7 65 16 94 17 60 8 117 -26 165 -11 16 -20 54 -25 108 -7 76 -9 82 -27 76
-16 -5 -19 -2 -16 17 2 18 14 27 58 40 88 27 90 27 91 -33z m-483 0 c107 -72
98 -204 -23 -316 l-53 -50 19 -77 c11 -42 24 -96 28 -119 l8 -43 -45 -17 c-25
-9 -49 -13 -54 -8 -5 5 -53 109 -108 233 -58 130 -105 223 -112 223 -7 -1 -20
-5 -29 -9 -13 -5 -24 7 -48 48 -17 30 -31 61 -31 70 0 18 82 60 160 82 35 9
90 14 151 12 85 -2 100 -5 137 -29z m1032 -17 c54 -28 49 -47 -30 -126 -38
-38 -70 -73 -70 -77 0 -10 61 10 80 27 25 22 43 19 75 -15 37 -39 29 -54 -48
-94 -73 -37 -173 -42 -227 -10 -50 29 -80 78 -80 131 0 76 33 129 105 166 43
23 151 22 195 -2z m906 -68 c-3 -43 -11 -129 -18 -190 l-11 -113 -56 6 c-31 4
-57 8 -59 9 -2 2 4 53 12 114 20 140 20 161 1 161 -8 0 -15 6 -15 13 0 26 27
48 75 62 82 22 79 25 71 -62z m-1607 -108 c59 -30 78 -124 40 -202 -53 -110
-204 -144 -273 -62 -64 76 -32 199 69 260 37 23 124 25 164 4z m634 -237 c-13
-26 -18 -29 -21 -15 -5 26 5 47 23 47 14 0 13 -4 -2 -32z"/>
<path d="M1846 626 c-22 -52 -21 -56 15 -56 29 0 30 1 24 33 -13 59 -22 64
-39 23z"/>
<path d="M2173 710 c-24 -10 -30 -43 -13 -70 8 -12 15 -9 45 20 33 32 34 36
18 47 -19 15 -20 15 -50 3z"/>
<path d="M409 600 c-15 -9 -14 -17 10 -95 14 -46 29 -85 32 -85 14 0 61 44 75
72 18 35 12 70 -16 98 -21 21 -73 26 -101 10z m71 -65 c0 -8 -2 -15 -4 -15 -2
0 -6 7 -10 15 -3 8 -1 15 4 15 6 0 10 -7 10 -15z"/>
<path d="M1395 625 c-29 -28 -33 -79 -9 -110 15 -19 17 -18 76 45 54 59 58 65
42 77 -29 22 -82 16 -109 -12z"/>
<path d="M744 487 c-53 -46 -26 -127 42 -127 18 0 40 3 49 6 21 9 48 62 40 82
-5 13 -8 12 -21 -6 -16 -23 -48 -28 -73 -13 -10 6 -12 20 -8 45 3 20 4 36 2
36 -2 0 -16 -11 -31 -23z"/>
</g>
</svg>
